<svg xmlns="http://www.w3.org/2000/svg" xmlns:xlink="http://www.w3.org/1999/xlink" preserveAspectRatio="xMidYMid" width="86" height="100" viewBox="0 0 86 100">
  <defs>
    <style>
      .cls-1 {
        fill: #000;
        fill-rule: evenodd;
      }
    </style>
  </defs>
  <path d="M28.418,33.176 C28.418,39.870 22.996,45.316 16.331,45.316 C9.666,45.316 4.243,39.870 4.243,33.176 C4.243,26.483 9.666,21.037 16.331,21.037 C22.996,21.037 28.418,26.483 28.418,33.176 ZM8.140,33.176 C8.140,37.713 11.814,41.403 16.331,41.403 C20.847,41.403 24.522,37.713 24.522,33.176 C24.522,31.758 24.162,30.421 23.529,29.254 L17.465,34.500 C17.137,34.784 16.733,34.924 16.331,34.924 C15.842,34.924 15.356,34.718 15.012,34.317 C14.385,33.586 14.467,32.482 15.195,31.853 L21.257,26.609 C19.885,25.568 18.178,24.950 16.331,24.950 C11.814,24.950 8.140,28.641 8.140,33.176 ZM86.014,9.259 C85.301,15.314 80.186,19.955 74.117,20.056 C74.103,20.057 74.090,20.057 74.077,20.057 C74.074,20.057 74.071,20.056 74.069,20.056 C74.057,20.056 74.046,20.058 74.034,20.058 L64.885,20.058 L64.885,33.061 L73.608,33.061 C73.760,33.030 73.916,33.014 74.076,33.014 C74.089,33.014 74.102,33.014 74.115,33.014 C80.185,33.114 85.301,37.756 86.014,43.810 C86.094,44.486 85.881,45.128 85.479,45.612 C85.455,45.641 85.430,45.668 85.406,45.696 C85.392,45.712 85.378,45.728 85.363,45.743 C84.931,46.206 84.319,46.497 83.637,46.497 L71.144,46.497 L71.144,97.623 C71.144,98.936 70.085,100.000 68.778,100.000 C67.472,100.000 66.413,98.936 66.413,97.623 L66.413,51.008 L61.063,51.008 L61.063,97.623 C61.063,98.936 60.003,100.000 58.697,100.000 C57.390,100.000 56.331,98.936 56.331,97.623 L56.331,48.632 C56.331,47.320 57.390,46.256 58.697,46.256 L60.154,46.256 L60.154,17.682 C60.154,16.370 61.213,15.307 62.519,15.307 L74.023,15.307 C74.028,15.306 74.033,15.306 74.038,15.305 C76.788,15.259 79.216,13.689 80.469,11.373 L68.778,11.373 C67.472,11.373 66.413,10.310 66.413,8.997 L66.413,4.751 L36.254,4.751 L8.356,11.970 C6.694,12.401 5.422,13.671 4.941,15.259 L43.312,15.259 C44.619,15.259 45.678,16.322 45.678,17.634 L45.678,20.158 L48.090,20.158 C49.051,20.158 49.830,20.940 49.830,21.905 C49.830,22.869 49.051,23.651 48.090,23.651 L45.678,23.651 L45.678,29.803 L48.090,29.803 C49.051,29.803 49.830,30.585 49.830,31.550 C49.830,32.515 49.051,33.297 48.090,33.297 L45.678,33.297 L45.678,39.447 L48.090,39.447 C49.051,39.447 49.830,40.229 49.830,41.194 C49.830,42.159 49.051,42.941 48.090,42.941 L45.678,42.941 L45.678,46.256 L47.134,46.256 C48.441,46.256 49.500,47.320 49.500,48.632 L49.500,97.623 C49.500,98.936 48.441,100.000 47.134,100.000 C45.828,100.000 44.769,98.936 44.769,97.623 L44.769,93.853 L42.309,93.853 C41.348,93.853 40.569,93.070 40.569,92.106 C40.569,91.141 41.348,90.359 42.309,90.359 L44.769,90.359 L44.769,86.606 L42.309,86.606 C41.348,86.606 40.569,85.824 40.569,84.860 C40.569,83.895 41.348,83.113 42.309,83.113 L44.769,83.113 L44.769,79.361 L42.309,79.361 C41.348,79.361 40.569,78.579 40.569,77.615 C40.569,76.650 41.348,75.868 42.309,75.868 L44.769,75.868 L44.769,72.115 L42.309,72.115 C41.348,72.115 40.569,71.333 40.569,70.369 C40.569,69.404 41.348,68.622 42.309,68.622 L44.769,68.622 L44.769,64.870 L42.309,64.870 C41.348,64.870 40.569,64.088 40.569,63.123 C40.569,62.158 41.348,61.376 42.309,61.376 L44.769,61.376 L44.769,57.624 L42.309,57.624 C41.348,57.624 40.569,56.842 40.569,55.878 C40.569,54.913 41.348,54.131 42.309,54.131 L44.769,54.131 L44.769,51.008 L5.315,51.008 C5.606,52.902 6.991,54.478 8.882,54.969 C8.882,54.969 8.882,54.969 8.883,54.969 C8.883,54.969 8.883,54.969 8.884,54.970 L32.104,61.015 C32.114,61.018 32.123,61.021 32.132,61.024 C32.132,61.024 32.133,61.024 32.133,61.024 C35.297,61.845 37.507,64.721 37.508,68.017 L37.508,68.018 L37.508,97.623 C37.508,98.936 36.449,100.000 35.142,100.000 C33.835,100.000 32.776,98.936 32.776,97.623 L32.776,68.018 C32.776,66.888 32.025,65.904 30.950,65.625 C30.940,65.623 30.931,65.618 30.921,65.616 C30.920,65.616 30.918,65.616 30.917,65.615 L7.697,59.569 C7.696,59.569 7.695,59.569 7.694,59.568 C3.473,58.470 0.526,54.645 0.526,50.264 L0.526,48.632 C0.526,47.320 1.585,46.256 2.891,46.256 L40.946,46.256 L40.946,20.010 L2.366,20.010 C1.059,20.010 -0.000,18.946 -0.000,17.634 L-0.000,16.675 C-0.000,12.291 2.949,8.465 7.173,7.369 C7.173,7.369 7.173,7.369 7.173,7.369 C7.174,7.369 7.174,7.368 7.174,7.368 L35.364,0.074 C35.379,0.071 35.395,0.069 35.410,0.065 C35.455,0.055 35.499,0.046 35.545,0.037 C35.583,0.031 35.621,0.025 35.658,0.020 C35.694,0.015 35.730,0.012 35.767,0.009 C35.815,0.005 35.862,0.003 35.910,0.002 C35.925,0.002 35.939,-0.000 35.954,-0.000 L68.778,-0.000 C70.085,-0.000 71.144,1.064 71.144,2.375 L71.144,6.621 L83.397,6.621 C83.575,6.601 83.757,6.599 83.943,6.621 C85.241,6.774 86.168,7.956 86.014,9.259 ZM64.885,46.256 L66.413,46.256 L66.413,44.121 C66.413,42.810 67.472,41.746 68.778,41.746 L80.495,41.746 C79.306,39.506 77.020,37.954 74.402,37.781 C74.281,37.799 74.159,37.812 74.034,37.812 L64.885,37.812 L64.885,46.256 Z" class="cls-1"/>
</svg>


