<svg xmlns="http://www.w3.org/2000/svg" xmlns:xlink="http://www.w3.org/1999/xlink" preserveAspectRatio="xMidYMid" width="100" height="98" viewBox="0 0 100 98">
  <defs>
    <style>
      .cls-1 {
        fill: #000;
        fill-rule: evenodd;
      }
    </style>
  </defs>
  <path d="M93.750,58.382 L65.542,58.382 L57.330,67.970 C56.517,68.919 55.372,69.432 54.184,69.432 C53.697,69.432 53.202,69.345 52.721,69.167 C51.068,68.556 50.000,67.021 50.000,65.256 L50.000,58.382 L47.917,58.382 C44.470,58.382 41.667,55.576 41.667,52.127 L41.667,6.255 C41.667,2.806 44.470,0.000 47.917,0.000 L93.750,0.000 C97.196,0.000 100.000,2.806 100.000,6.255 L100.000,52.127 C100.000,55.576 97.196,58.382 93.750,58.382 ZM95.833,6.255 C95.833,5.105 94.898,4.170 93.750,4.170 L47.917,4.170 C46.768,4.170 45.833,5.105 45.833,6.255 L45.833,52.127 C45.833,53.276 46.768,54.212 47.917,54.212 L52.083,54.212 C53.234,54.212 54.167,55.146 54.167,56.297 L54.167,65.256 L63.001,54.939 C63.397,54.477 63.975,54.212 64.583,54.212 L93.750,54.212 C94.898,54.212 95.833,53.276 95.833,52.127 L95.833,6.255 ZM81.814,44.968 L79.753,44.968 C76.342,44.968 73.568,42.187 73.568,38.769 L73.568,36.702 C73.568,33.284 76.342,30.503 79.753,30.503 L81.814,30.503 C85.225,30.503 87.999,33.284 87.999,36.702 L87.999,38.769 C87.999,42.187 85.225,44.968 81.814,44.968 ZM83.876,36.702 C83.876,35.563 82.952,34.636 81.814,34.636 L79.753,34.636 C78.615,34.636 77.691,35.563 77.691,36.702 L77.691,38.769 C77.691,39.908 78.615,40.835 79.753,40.835 L81.814,40.835 C82.952,40.835 83.876,39.908 83.876,38.769 L83.876,36.702 ZM61.349,43.943 L77.842,15.013 L81.422,17.062 L64.928,45.993 L61.349,43.943 ZM63.260,30.503 L61.199,30.503 C57.788,30.503 55.014,27.722 55.014,24.303 L55.014,22.237 C55.014,18.818 57.788,16.037 61.199,16.037 L63.260,16.037 C66.671,16.037 69.445,18.818 69.445,22.237 L69.445,24.303 C69.445,27.722 66.671,30.503 63.260,30.503 ZM65.322,22.237 C65.322,21.098 64.397,20.171 63.260,20.171 L61.199,20.171 C60.062,20.171 59.137,21.098 59.137,22.237 L59.137,24.303 C59.137,25.442 60.062,26.370 61.199,26.370 L63.260,26.370 C64.397,26.370 65.322,25.442 65.322,24.303 L65.322,22.237 ZM8.333,37.531 L10.417,37.531 L10.417,35.446 C10.417,30.148 13.316,25.706 17.983,23.853 L19.519,27.730 C16.429,28.956 14.583,31.841 14.583,35.446 L14.583,37.531 L31.250,37.531 L31.250,35.446 C31.250,31.839 29.403,28.952 26.307,27.727 L27.841,23.850 C32.513,25.701 35.417,30.144 35.417,35.446 L35.417,37.531 L37.500,37.531 L37.500,41.701 L8.333,41.701 L8.333,37.531 ZM20.833,20.850 L25.000,20.850 L25.000,31.276 L20.833,31.276 L20.833,20.850 ZM33.333,43.786 L33.333,45.872 C33.333,51.912 28.952,56.297 22.917,56.297 C16.881,56.297 12.500,51.912 12.500,45.872 L12.500,43.786 L16.667,43.786 L16.667,45.872 C16.667,49.613 19.178,52.127 22.917,52.127 C26.655,52.127 29.167,49.613 29.167,45.872 L29.167,43.786 L33.333,43.786 ZM43.750,68.808 L43.750,70.894 L39.583,70.894 L39.583,68.808 C39.583,67.153 31.811,62.553 23.957,62.552 C16.636,62.552 8.331,68.863 8.331,70.893 L8.331,91.745 L4.165,91.745 L4.165,70.893 C4.165,65.514 15.448,58.382 23.957,58.382 C31.774,58.383 43.750,63.054 43.750,68.808 ZM61.212,77.148 L36.790,77.148 L31.081,90.480 C30.754,91.246 30.000,91.744 29.167,91.744 L16.667,91.744 L16.667,87.574 L27.793,87.574 L33.502,74.242 C33.830,73.475 34.584,72.978 35.417,72.978 L64.583,72.978 C65.306,72.978 65.976,73.352 66.355,73.966 C66.735,74.581 66.769,75.349 66.447,75.995 L57.538,93.828 L97.917,93.828 L97.917,97.999 L-0.000,97.999 L-0.000,93.828 L52.879,93.828 L61.212,77.148 Z" class="cls-1"/>
</svg>


