<svg xmlns="http://www.w3.org/2000/svg" xmlns:xlink="http://www.w3.org/1999/xlink" preserveAspectRatio="xMidYMid" width="99" height="100" viewBox="0 0 99 100">
  <defs>
    <style>
      .cls-1 {
        fill: #000;
        fill-rule: evenodd;
      }
    </style>
  </defs>
  <path d="M94.895,52.114 C94.881,52.105 94.866,52.099 94.852,52.090 C94.838,52.082 94.825,52.072 94.810,52.064 L91.811,50.337 C92.939,43.314 89.609,36.199 83.339,32.609 C83.335,32.607 83.331,32.605 83.327,32.602 C83.326,32.602 83.326,32.602 83.326,32.602 C83.297,32.586 83.267,32.572 83.238,32.558 C83.203,32.540 83.169,32.521 83.133,32.504 C83.133,32.504 83.132,32.504 83.132,32.504 C83.127,32.502 83.122,32.499 83.116,32.497 C82.991,32.442 82.865,32.390 82.737,32.342 C82.360,28.203 80.360,24.392 77.097,21.694 L77.097,21.694 C75.446,20.329 73.360,19.578 71.251,19.541 C70.344,16.177 67.720,13.486 64.216,12.529 C61.245,11.717 58.175,12.309 55.779,14.003 C54.210,11.482 51.441,9.775 48.321,9.669 C43.727,9.511 39.724,12.737 39.010,17.168 C39.009,17.177 39.009,17.186 39.007,17.195 C39.006,17.204 39.004,17.212 39.002,17.221 L38.659,19.760 L34.299,17.271 C32.933,16.483 32.012,15.019 31.705,13.147 C31.705,13.146 31.704,13.145 31.704,13.144 C30.860,7.844 27.900,3.471 23.784,1.446 C19.581,-0.623 14.422,-0.440 9.632,1.946 C9.619,1.953 9.607,1.961 9.595,1.967 C9.582,1.974 9.569,1.979 9.556,1.986 C9.522,2.005 9.490,2.025 9.458,2.045 C9.450,2.050 9.441,2.054 9.433,2.059 C8.606,2.569 8.110,3.469 8.099,4.496 C8.088,5.555 8.630,6.529 9.512,7.039 C9.513,7.040 9.514,7.041 9.515,7.041 L9.516,7.041 C9.517,7.042 9.517,7.043 9.518,7.043 C9.518,7.043 9.519,7.043 9.519,7.043 L19.110,12.582 C19.707,14.519 19.461,16.609 18.416,18.360 C17.346,20.154 15.563,21.383 13.508,21.756 L4.341,16.477 C4.340,16.477 4.340,16.477 4.340,16.477 C4.340,16.477 4.340,16.477 4.339,16.476 C3.407,15.940 2.275,15.945 1.385,16.488 C0.490,17.035 -0.052,18.071 0.003,19.129 L0.003,19.129 C0.132,21.565 0.808,23.953 1.958,26.036 C4.191,30.080 8.218,32.800 12.729,33.313 C13.274,33.374 13.824,33.405 14.378,33.405 C16.386,33.405 18.450,32.999 20.533,32.192 C20.543,32.188 20.552,32.183 20.562,32.179 C20.571,32.175 20.580,32.173 20.589,32.170 C22.131,31.522 23.890,31.618 25.295,32.425 L28.298,34.180 L26.467,37.394 C26.466,37.396 26.466,37.397 26.465,37.399 C23.371,42.603 22.954,49.022 25.354,54.577 C25.359,54.589 25.366,54.601 25.371,54.612 C25.375,54.620 25.377,54.629 25.381,54.636 L32.724,70.317 C32.724,70.318 32.725,70.318 32.725,70.319 C32.725,70.319 32.725,70.320 32.725,70.321 C33.532,72.035 33.817,73.926 33.550,75.786 L33.058,78.976 L32.403,82.157 L32.046,83.680 L31.540,83.680 C29.494,83.680 27.666,85.044 27.079,86.999 C27.078,87.002 27.077,87.005 27.076,87.008 L26.041,90.392 L24.858,93.723 L23.505,96.993 C23.502,96.999 23.500,97.006 23.497,97.012 L23.495,97.018 C23.492,97.025 23.490,97.034 23.486,97.041 C23.463,97.099 23.442,97.158 23.424,97.217 C23.416,97.242 23.411,97.267 23.404,97.292 C23.393,97.335 23.381,97.378 23.373,97.421 C23.364,97.465 23.359,97.508 23.353,97.552 C23.349,97.578 23.344,97.603 23.342,97.629 C23.336,97.691 23.333,97.753 23.333,97.815 C23.332,97.823 23.331,97.832 23.331,97.841 C23.331,97.842 23.331,97.843 23.331,97.844 C23.331,97.913 23.335,97.983 23.342,98.052 C23.342,98.055 23.342,98.059 23.342,98.062 C23.349,98.121 23.358,98.179 23.369,98.237 C23.408,98.443 23.476,98.639 23.569,98.821 C23.576,98.834 23.581,98.847 23.588,98.859 C23.608,98.897 23.631,98.932 23.653,98.968 C23.668,98.993 23.681,99.018 23.697,99.041 C23.713,99.064 23.731,99.087 23.748,99.110 C23.773,99.144 23.797,99.178 23.824,99.211 C23.833,99.222 23.843,99.232 23.852,99.243 C23.986,99.398 24.142,99.536 24.320,99.651 C24.369,99.683 24.418,99.714 24.470,99.741 C24.474,99.743 24.478,99.745 24.482,99.747 C24.542,99.778 24.604,99.808 24.668,99.835 C24.669,99.835 24.670,99.836 24.671,99.836 C24.681,99.840 24.692,99.843 24.702,99.847 C24.757,99.868 24.812,99.889 24.868,99.906 C24.896,99.914 24.923,99.920 24.950,99.927 C24.990,99.938 25.030,99.948 25.071,99.957 C25.127,99.968 25.184,99.976 25.240,99.982 C25.253,99.984 25.265,99.986 25.278,99.988 C25.351,99.995 25.424,100.000 25.496,100.000 C25.501,100.000 25.506,99.999 25.511,99.999 L69.473,99.999 C70.555,99.999 71.449,99.207 71.611,98.175 C71.628,98.068 71.640,97.961 71.642,97.850 C71.676,95.024 72.046,92.202 72.742,89.463 C72.742,89.463 72.742,89.463 72.742,89.463 C73.099,88.058 72.798,86.603 71.915,85.473 C71.471,84.906 70.898,84.454 70.253,84.146 C70.452,83.623 70.659,83.103 70.878,82.592 C70.878,82.591 70.878,82.591 70.878,82.591 C71.558,81.008 72.648,79.630 74.029,78.608 C74.032,78.605 74.036,78.602 74.039,78.600 C74.043,78.596 74.048,78.594 74.052,78.590 C78.526,75.186 81.746,70.850 84.490,66.514 L85.931,67.343 C85.951,67.355 85.971,67.365 85.991,67.376 C86.000,67.380 86.008,67.386 86.016,67.390 C86.024,67.394 86.032,67.398 86.040,67.401 C86.058,67.411 86.077,67.419 86.095,67.427 C87.351,68.061 88.718,68.385 90.100,68.385 C90.935,68.385 91.774,68.267 92.597,68.030 C94.813,67.391 96.665,65.949 97.810,63.973 C100.183,59.879 98.903,54.670 94.895,52.114 ZM87.692,47.967 L85.404,46.650 C85.522,45.533 84.756,44.501 83.630,44.301 C82.453,44.094 81.328,44.876 81.120,46.050 C80.437,49.886 78.102,53.251 74.867,55.068 C73.756,55.580 72.410,55.363 71.504,54.518 C70.596,53.672 70.307,52.386 70.765,51.236 L76.328,38.440 C76.328,38.439 76.328,38.439 76.328,38.439 C76.329,38.438 76.329,38.438 76.329,38.437 C76.731,37.509 77.503,36.767 78.448,36.400 C79.371,36.042 80.392,36.045 81.268,36.404 C85.415,38.822 87.821,43.307 87.692,47.967 ZM78.326,31.965 C77.834,32.059 77.348,32.195 76.876,32.378 C74.860,33.160 73.212,34.744 72.354,36.723 C72.354,36.723 72.354,36.724 72.354,36.724 L72.353,36.725 C72.353,36.726 72.352,36.726 72.352,36.726 C72.352,36.727 72.352,36.727 72.352,36.727 L67.342,48.253 C66.446,49.263 65.052,49.621 63.724,49.162 C62.364,48.692 61.460,47.414 61.461,45.975 C61.603,43.753 61.894,41.521 62.328,39.338 L62.328,39.337 C63.204,34.928 64.667,30.651 66.675,26.627 C67.365,25.243 68.613,24.271 70.098,23.957 C71.572,23.647 73.154,24.042 74.331,25.016 C74.331,25.016 74.331,25.016 74.331,25.016 C76.494,26.805 77.892,29.266 78.326,31.965 ZM63.071,16.692 C64.999,17.219 66.458,18.667 67.017,20.491 C65.210,21.380 63.726,22.841 62.796,24.705 C60.617,29.073 59.030,33.714 58.079,38.498 C57.943,39.184 57.821,39.875 57.710,40.568 C56.707,41.502 55.294,41.848 53.904,41.469 C52.930,41.204 52.111,40.593 51.577,39.783 C54.140,38.594 56.375,36.730 57.983,34.383 C57.984,34.381 57.985,34.380 57.986,34.378 C59.153,32.673 59.416,30.502 58.689,28.568 C57.995,26.725 56.455,25.311 54.545,24.746 C55.001,22.766 55.748,20.873 56.777,19.098 C58.139,17.001 60.663,16.034 63.071,16.692 ZM48.173,13.984 C50.318,14.057 52.148,15.565 52.663,17.590 C51.569,19.612 50.771,21.754 50.278,23.987 C49.651,23.930 49.022,23.895 48.392,23.885 C48.392,23.885 48.392,23.885 48.392,23.885 C48.006,23.879 47.647,23.826 47.328,23.728 C47.327,23.728 47.327,23.728 47.326,23.727 C47.326,23.727 47.325,23.727 47.325,23.727 L42.686,22.304 L43.290,17.838 C43.658,15.595 45.799,13.902 48.173,13.984 ZM27.473,28.695 C27.471,28.693 27.469,28.693 27.467,28.692 C27.465,28.690 27.463,28.689 27.461,28.687 C24.908,27.218 21.737,27.026 18.966,28.168 C18.965,28.168 18.964,28.168 18.963,28.169 C16.967,28.942 15.035,29.230 13.220,29.024 C10.102,28.670 7.310,26.775 5.753,23.955 C5.369,23.260 5.059,22.516 4.825,21.742 L11.615,25.651 C11.615,25.651 11.615,25.651 11.616,25.652 L11.616,25.652 C11.617,25.652 11.618,25.652 11.619,25.654 C11.662,25.678 11.705,25.701 11.748,25.721 C12.234,25.972 12.783,26.101 13.368,26.101 C13.588,26.101 13.813,26.083 14.041,26.046 C14.044,26.046 14.047,26.046 14.050,26.045 C14.050,26.045 14.050,26.045 14.050,26.045 C14.051,26.045 14.051,26.045 14.052,26.045 C14.053,26.045 14.054,26.045 14.055,26.045 C17.440,25.500 20.386,23.504 22.139,20.566 C23.892,17.628 24.244,14.093 23.105,10.867 C23.103,10.860 23.099,10.853 23.097,10.846 C22.814,10.062 22.252,9.408 21.469,8.955 C21.467,8.954 21.465,8.952 21.463,8.951 L21.462,8.951 C21.461,8.951 21.461,8.950 21.461,8.950 C21.460,8.949 21.460,8.949 21.460,8.949 L14.241,4.781 C16.949,4.043 19.627,4.214 21.866,5.316 C24.727,6.724 26.806,9.907 27.428,13.832 C27.428,13.834 27.429,13.836 27.429,13.838 C27.430,13.840 27.430,13.842 27.430,13.843 C27.951,17.018 29.622,19.563 32.135,21.010 C32.136,21.010 32.137,21.010 32.138,21.011 C32.139,21.012 32.140,21.012 32.141,21.013 L35.774,23.088 C34.637,23.786 33.661,24.765 32.972,25.977 C32.972,25.977 32.971,25.978 32.971,25.978 L32.970,25.981 C32.970,25.981 32.970,25.981 32.969,25.981 L32.969,25.981 L30.437,30.426 L27.473,28.695 ZM67.159,87.998 C67.231,88.005 67.302,88.010 67.373,88.010 C67.445,88.010 67.517,88.005 67.588,87.998 L68.214,87.998 C68.322,87.998 68.438,88.050 68.496,88.125 C68.573,88.223 68.559,88.342 68.543,88.403 C68.543,88.403 68.543,88.404 68.543,88.404 C67.937,90.788 67.552,93.228 67.393,95.682 L28.733,95.682 L28.884,95.318 C28.898,95.284 28.911,95.250 28.924,95.215 L30.140,91.786 C30.151,91.756 30.161,91.726 30.170,91.696 L31.219,88.267 C31.221,88.263 31.221,88.258 31.223,88.254 C31.224,88.249 31.226,88.243 31.228,88.238 C31.270,88.094 31.395,87.998 31.540,87.998 L33.756,87.998 C33.759,87.998 33.762,87.998 33.765,87.998 C33.770,87.998 33.774,87.998 33.778,87.998 L67.159,87.998 ZM71.423,75.159 C71.421,75.161 71.420,75.162 71.419,75.164 C69.436,76.638 67.873,78.619 66.896,80.893 C66.896,80.893 66.896,80.893 66.896,80.894 C66.504,81.806 66.145,82.739 65.814,83.680 L36.494,83.680 L36.628,83.111 C36.632,83.092 36.636,83.072 36.640,83.053 L37.312,79.791 C37.319,79.756 37.325,79.721 37.331,79.686 L37.834,76.424 C37.835,76.421 37.835,76.417 37.835,76.413 C37.836,76.409 37.837,76.406 37.838,76.402 C38.225,73.706 37.814,70.972 36.650,68.493 C36.649,68.493 36.649,68.493 36.649,68.492 L36.649,68.491 C36.648,68.491 36.648,68.490 36.648,68.489 C36.648,68.489 36.648,68.488 36.648,68.488 L29.324,52.850 C27.475,48.551 27.806,43.587 30.211,39.565 C30.214,39.561 30.216,39.555 30.218,39.551 C30.223,39.542 30.229,39.534 30.234,39.525 L33.016,34.643 C33.050,34.594 33.083,34.544 33.114,34.492 C33.155,34.421 33.191,34.350 33.224,34.278 L36.738,28.110 C36.738,28.109 36.738,28.109 36.738,28.109 C36.739,28.107 36.739,28.107 36.739,28.107 C37.436,26.880 38.755,26.163 40.112,26.186 C40.164,26.189 40.216,26.191 40.267,26.192 C40.559,26.208 40.851,26.257 41.139,26.346 C41.139,26.346 41.140,26.346 41.140,26.346 C41.140,26.346 41.141,26.347 41.141,26.347 L46.051,27.852 C46.052,27.852 46.054,27.853 46.055,27.854 C46.766,28.072 47.530,28.189 48.326,28.201 L48.326,28.201 C49.984,28.226 51.637,28.448 53.241,28.862 C53.241,28.862 53.241,28.862 53.241,28.862 C53.888,29.028 54.408,29.486 54.633,30.083 C54.863,30.695 54.776,31.410 54.407,31.948 C54.406,31.948 54.406,31.948 54.406,31.948 C54.406,31.949 54.405,31.950 54.405,31.950 C52.954,34.069 50.797,35.641 48.356,36.406 C48.239,36.432 48.125,36.465 48.017,36.509 C47.679,36.602 47.336,36.683 46.990,36.746 C43.993,37.287 40.847,36.596 38.356,34.850 C37.378,34.164 36.027,34.398 35.339,35.373 C34.650,36.348 34.885,37.694 35.864,38.380 C37.456,39.497 39.243,40.297 41.113,40.763 C40.281,43.394 38.615,45.733 36.360,47.369 C35.580,47.934 35.408,49.023 35.975,49.800 C36.317,50.268 36.849,50.516 37.389,50.516 C37.745,50.516 38.105,50.408 38.415,50.183 C41.438,47.990 43.628,44.803 44.615,41.235 C44.736,41.237 44.857,41.242 44.978,41.242 C45.770,41.242 46.563,41.182 47.350,41.061 C48.373,43.271 50.335,44.973 52.762,45.634 C53.525,45.841 54.292,45.942 55.046,45.942 C55.760,45.942 56.463,45.849 57.140,45.672 C57.138,45.707 57.135,45.742 57.133,45.777 C57.132,45.796 57.133,45.814 57.132,45.832 C57.131,45.850 57.129,45.867 57.129,45.885 C57.089,49.200 59.169,52.156 62.305,53.240 C63.145,53.531 64.008,53.671 64.860,53.671 C65.350,53.671 65.836,53.622 66.312,53.531 C66.568,55.080 67.329,56.538 68.546,57.671 C69.627,58.678 70.969,59.313 72.377,59.549 L80.734,64.355 C78.231,68.293 75.325,72.190 71.423,75.159 ZM94.060,61.813 C92.867,63.871 90.171,64.656 88.037,63.571 L78.331,57.990 C80.877,56.222 82.874,53.774 84.139,50.906 L92.587,55.769 C94.618,57.084 95.266,59.732 94.060,61.813 Z" class="cls-1"/>
</svg>


