<svg xmlns="http://www.w3.org/2000/svg" xmlns:xlink="http://www.w3.org/1999/xlink" preserveAspectRatio="xMidYMid" width="100" height="86" viewBox="0 0 100 86">
  <defs>
    <style>
      .cls-1 {
        fill: #000;
        fill-rule: evenodd;
      }
    </style>
  </defs>
  <path d="M90.217,74.475 L60.986,74.475 L60.986,81.331 L79.758,81.331 C81.058,81.331 82.112,82.376 82.112,83.665 C82.112,84.955 81.058,85.999 79.758,85.999 L20.242,85.999 C18.942,85.999 17.888,84.955 17.888,83.665 C17.888,82.376 18.942,81.331 20.242,81.331 L39.013,81.331 L39.013,74.475 L9.783,74.475 C4.389,74.475 -0.000,70.104 -0.000,64.732 L-0.000,9.701 C-0.000,4.352 4.389,-0.001 9.783,-0.001 L90.217,-0.001 C95.611,-0.001 99.999,4.352 100.000,9.701 L100.000,64.732 C100.000,70.104 95.611,74.475 90.217,74.475 ZM43.721,81.331 L56.279,81.331 L56.279,74.475 L43.721,74.475 L43.721,81.331 ZM95.292,9.701 C95.292,6.926 93.015,4.668 90.217,4.668 L9.783,4.668 C6.984,4.668 4.708,6.926 4.708,9.701 L4.708,64.732 C4.708,67.530 6.984,69.806 9.783,69.806 L90.217,69.806 C93.016,69.806 95.292,67.530 95.292,64.732 L95.292,9.701 ZM85.233,63.015 L82.867,64.373 L82.867,64.374 C82.706,64.465 82.526,64.512 82.342,64.512 C82.248,64.512 82.152,64.500 82.057,64.475 C81.778,64.401 81.546,64.228 81.406,63.987 C81.406,63.987 81.406,63.987 81.406,63.986 L81.406,63.986 L78.704,59.307 L76.600,60.505 C76.600,60.505 76.600,60.505 76.599,60.505 C76.453,60.588 76.291,60.629 76.124,60.629 C75.904,60.629 75.678,60.557 75.476,60.415 C75.142,60.179 74.976,59.769 75.054,59.370 C75.054,59.370 75.054,59.370 75.054,59.370 L76.465,52.167 C76.465,52.167 76.465,52.167 76.465,52.166 C76.523,51.870 76.707,51.612 76.971,51.461 C77.235,51.310 77.552,51.280 77.840,51.379 C77.840,51.379 77.840,51.379 77.840,51.379 C77.840,51.379 77.841,51.379 77.841,51.379 L84.832,53.800 C84.832,53.800 84.832,53.800 84.832,53.800 C85.242,53.941 85.519,54.268 85.556,54.652 C85.595,55.061 85.377,55.487 85.025,55.689 C85.025,55.689 85.025,55.689 85.025,55.689 L82.920,56.887 L85.622,61.566 L85.623,61.567 L85.623,61.567 C85.912,62.065 85.734,62.728 85.233,63.015 L85.233,63.015 ZM78.804,39.777 L73.699,39.777 C72.743,39.777 71.968,39.008 71.968,38.061 L71.968,37.389 L61.206,37.389 C60.250,37.389 59.475,36.621 59.475,35.673 C59.475,34.725 60.250,33.957 61.206,33.957 L71.968,33.957 L71.968,33.244 C71.968,32.297 72.743,31.528 73.699,31.528 L74.541,31.528 L74.541,22.078 L73.699,22.078 C72.743,22.078 71.968,21.310 71.968,20.362 L71.968,19.691 L58.703,19.691 L58.703,20.362 C58.703,21.310 57.928,22.078 56.973,22.078 L56.172,22.078 L56.172,49.227 L56.973,49.227 C57.928,49.227 58.703,49.996 58.703,50.944 L58.703,55.759 C58.703,56.707 57.928,57.475 56.973,57.475 L51.868,57.475 C50.912,57.475 50.137,56.707 50.137,55.759 L50.137,55.047 L27.534,55.047 L27.534,55.759 C27.534,56.707 26.759,57.475 25.803,57.475 L20.698,57.475 C19.742,57.475 18.968,56.707 18.968,55.759 L18.968,50.944 C18.968,49.996 19.742,49.227 20.698,49.227 L21.499,49.227 L21.499,22.078 L20.698,22.078 C19.742,22.078 18.968,21.310 18.968,20.362 L18.968,15.546 C18.968,14.598 19.742,13.830 20.698,13.830 L25.803,13.830 C26.759,13.830 27.534,14.598 27.534,15.546 L27.534,16.258 L50.137,16.258 L50.137,15.546 C50.137,14.598 50.912,13.830 51.868,13.830 L56.973,13.830 C57.928,13.830 58.703,14.598 58.703,15.546 L58.703,16.258 L71.968,16.258 L71.968,15.546 C71.968,14.598 72.743,13.830 73.699,13.830 L78.804,13.830 C79.759,13.830 80.534,14.598 80.534,15.546 L80.534,20.362 C80.534,21.310 79.759,22.078 78.804,22.078 L78.003,22.078 L78.003,31.528 L78.804,31.528 C79.759,31.528 80.534,32.297 80.534,33.244 L80.534,38.061 C80.534,39.008 79.759,39.777 78.804,39.777 ZM52.710,22.078 L51.868,22.078 C50.912,22.078 50.137,21.310 50.137,20.362 L50.137,19.691 L27.534,19.691 L27.534,20.362 C27.534,21.310 26.759,22.078 25.803,22.078 L24.961,22.078 L24.961,49.227 L25.803,49.227 C26.759,49.227 27.534,49.996 27.534,50.944 L27.534,51.615 L50.137,51.615 L50.137,50.944 C50.137,49.996 50.912,49.227 51.868,49.227 L52.710,49.227 L52.710,22.078 Z" class="cls-1"/>
</svg>


