<svg xmlns="http://www.w3.org/2000/svg" xmlns:xlink="http://www.w3.org/1999/xlink" preserveAspectRatio="xMidYMid" width="89" height="100" viewBox="0 0 89 100">
  <defs>
    <style>
      .cls-1 {
        fill: #000;
        fill-rule: evenodd;
      }
    </style>
  </defs>
  <path d="M84.662,99.999 L52.702,99.999 C52.698,99.999 52.694,100.000 52.691,100.000 C52.685,100.000 52.680,99.999 52.675,99.999 L36.325,99.999 C36.320,99.999 36.315,100.000 36.309,100.000 C36.306,100.000 36.302,99.999 36.298,99.999 L4.285,99.999 C1.922,99.999 -0.000,98.057 -0.000,95.671 L-0.000,86.719 C-0.000,79.756 4.711,73.641 11.458,71.846 C11.459,71.845 11.460,71.845 11.461,71.845 L11.465,71.844 C11.465,71.843 11.466,71.843 11.466,71.843 C11.466,71.843 11.466,71.843 11.466,71.843 L25.231,68.149 C25.232,68.149 25.233,68.149 25.234,68.149 C25.234,68.149 25.235,68.148 25.236,68.148 C26.745,67.747 28.347,67.953 29.631,68.713 C30.904,69.466 31.813,70.731 32.191,72.274 C32.191,72.274 32.191,72.274 32.191,72.274 L37.955,95.819 L39.064,95.819 L41.631,82.785 C41.632,82.784 41.632,82.784 41.632,82.782 C41.633,82.781 41.632,82.781 41.632,82.780 C41.805,82.024 41.644,81.279 41.200,80.788 C41.200,80.788 41.200,80.788 41.200,80.787 L39.688,79.123 C39.688,79.122 39.688,79.122 39.688,79.122 C39.688,79.122 39.687,79.122 39.687,79.122 C39.277,78.668 39.075,78.000 39.133,77.289 C39.187,76.620 39.475,76.059 39.966,75.666 L39.966,75.665 C39.966,75.665 39.967,75.665 39.967,75.665 C39.967,75.665 39.967,75.665 39.967,75.664 L42.991,73.219 C42.992,73.219 42.992,73.219 42.992,73.219 C42.992,73.219 42.992,73.219 42.992,73.219 C43.866,72.519 45.134,72.519 46.008,73.219 C46.008,73.219 46.008,73.219 46.009,73.219 C46.009,73.220 46.009,73.220 46.009,73.220 L48.981,75.665 L48.981,75.665 C48.981,75.665 48.981,75.665 48.981,75.665 L48.983,75.666 C48.983,75.667 48.983,75.667 48.983,75.667 C49.538,76.112 49.871,76.688 49.919,77.289 C49.970,77.913 49.718,78.614 49.262,79.120 C49.262,79.120 49.262,79.120 49.262,79.120 L49.261,79.121 C49.261,79.121 49.261,79.121 49.260,79.122 L49.260,79.122 L47.801,80.786 C47.801,80.786 47.801,80.786 47.801,80.786 C47.800,80.787 47.800,80.787 47.800,80.788 C47.353,81.283 47.191,82.027 47.367,82.779 C47.367,82.780 47.367,82.781 47.367,82.782 C47.368,82.783 47.368,82.784 47.368,82.785 L49.936,95.819 L51.045,95.819 L56.809,72.274 C56.809,72.274 56.809,72.274 56.809,72.274 C57.176,70.776 58.128,69.478 59.420,68.713 C60.713,67.948 62.255,67.747 63.764,68.148 C63.765,68.148 63.765,68.149 63.766,68.149 C63.767,68.149 63.768,68.149 63.769,68.149 L77.539,71.845 C77.540,71.845 77.542,71.846 77.543,71.846 C84.289,73.641 88.999,79.756 89.000,86.719 L89.000,95.671 C89.000,98.057 87.054,99.999 84.662,99.999 ZM28.122,73.267 L28.122,73.266 C28.015,72.830 27.786,72.481 27.494,72.308 C27.182,72.123 26.730,72.077 26.314,72.188 L12.549,75.881 C12.548,75.881 12.547,75.882 12.546,75.882 C12.545,75.883 12.544,75.883 12.543,75.883 C7.625,77.189 4.189,81.645 4.189,86.719 L4.189,95.671 C4.189,95.754 4.241,95.819 4.285,95.819 L33.643,95.819 L28.122,73.267 ZM84.811,86.719 C84.810,81.645 81.375,77.188 76.457,75.883 C76.456,75.883 76.455,75.883 76.455,75.883 C76.454,75.882 76.452,75.881 76.451,75.881 L62.686,72.188 C62.275,72.079 61.874,72.121 61.558,72.308 C61.232,72.501 60.978,72.859 60.878,73.266 C60.878,73.266 60.878,73.267 60.878,73.267 L55.357,95.819 L84.662,95.819 C84.730,95.819 84.811,95.739 84.811,95.671 L84.811,86.719 ZM68.611,31.899 C68.611,31.899 68.610,31.900 68.610,31.900 C68.610,31.900 68.610,31.900 68.610,31.900 L68.588,31.915 C69.393,33.548 69.709,35.398 69.462,37.231 C69.109,39.852 67.675,42.193 65.529,43.653 C65.505,43.670 65.487,43.695 65.480,43.725 C64.578,47.436 62.781,50.995 60.282,54.023 C60.282,54.023 60.282,54.023 60.281,54.024 L56.633,58.653 C56.633,58.653 56.633,58.653 56.632,58.653 C56.632,58.654 56.632,58.654 56.631,58.656 L56.630,58.656 C56.630,58.656 56.630,58.656 56.630,58.656 C54.542,61.313 51.394,62.837 47.995,62.837 L41.005,62.837 C37.606,62.837 34.459,61.314 32.370,58.657 C32.370,58.657 32.370,58.656 32.370,58.656 L28.718,54.024 C28.718,54.023 28.718,54.023 28.717,54.023 C26.266,51.051 24.487,47.494 23.573,43.732 C23.573,43.732 23.572,43.731 23.572,43.731 C23.564,43.698 23.545,43.668 23.523,43.653 C23.522,43.653 23.522,43.652 23.521,43.652 C21.376,42.191 19.943,39.852 19.590,37.231 C19.344,35.402 19.654,33.561 20.447,31.940 L20.390,31.900 C20.390,31.900 20.390,31.900 20.389,31.900 C20.389,31.899 20.389,31.899 20.389,31.899 C19.576,31.323 19.079,30.347 19.090,29.352 C19.099,28.636 19.377,27.935 19.845,27.389 L20.030,22.165 C20.031,22.150 20.032,22.136 20.033,22.121 C20.033,22.115 20.033,22.109 20.033,22.104 C20.616,12.677 27.545,4.883 36.784,2.956 C37.101,1.252 38.566,-0.000 40.379,-0.000 L48.594,-0.000 C50.385,-0.000 51.881,1.272 52.211,2.951 C61.467,4.896 68.543,12.858 68.969,22.136 C68.969,22.137 68.969,22.138 68.969,22.139 C68.969,22.150 68.969,22.160 68.970,22.171 C68.970,22.173 68.970,22.175 68.970,22.176 L69.108,27.298 C69.621,27.825 69.930,28.521 69.959,29.268 C70.000,30.272 69.483,31.281 68.611,31.899 ZM36.720,7.267 C30.324,8.973 25.478,14.220 24.406,20.680 C26.869,21.132 29.476,20.708 31.635,19.461 C34.439,17.842 36.720,14.322 36.720,11.614 L36.720,7.267 ZM52.280,7.264 L52.280,11.614 C52.280,14.818 54.864,17.987 57.417,19.461 C59.606,20.726 62.158,21.143 64.617,20.679 C63.628,14.317 58.694,8.988 52.280,7.264 ZM64.939,28.119 C64.939,28.119 64.939,28.119 64.939,28.118 C64.939,28.118 64.939,28.118 64.939,28.117 L64.852,24.878 C64.123,24.988 63.390,25.046 62.658,25.046 C60.107,25.046 57.575,24.382 55.318,23.079 C51.837,21.069 48.091,16.623 48.091,11.614 L48.091,4.179 L40.909,4.179 L40.909,11.614 C40.909,16.420 37.299,21.019 33.734,23.079 C31.471,24.385 28.931,25.051 26.371,25.051 C25.622,25.051 24.872,24.991 24.126,24.876 L24.008,28.187 C24.008,28.189 24.008,28.190 24.008,28.193 C24.008,28.195 24.008,28.196 24.008,28.198 C23.994,28.543 23.915,28.872 23.778,29.173 L27.300,31.665 C27.300,31.665 27.300,31.666 27.300,31.666 C27.300,31.666 27.301,31.666 27.301,31.667 C27.473,31.788 27.685,31.853 27.913,31.853 L44.500,31.853 L61.087,31.853 C61.315,31.853 61.527,31.788 61.699,31.667 C61.699,31.666 61.699,31.666 61.700,31.666 C61.700,31.666 61.700,31.665 61.700,31.665 L64.446,29.722 C64.503,29.677 64.562,29.635 64.622,29.597 L65.205,29.185 C65.043,28.853 64.949,28.493 64.939,28.119 ZM65.091,34.391 L64.124,35.075 C64.109,35.086 64.093,35.095 64.078,35.105 C63.203,35.711 62.170,36.033 61.087,36.033 L44.500,36.033 L27.913,36.033 C26.829,36.033 25.797,35.711 24.922,35.105 C24.907,35.095 24.891,35.086 24.876,35.075 L23.943,34.414 C23.709,35.127 23.637,35.893 23.742,36.673 C23.937,38.121 24.717,39.406 25.882,40.199 C25.882,40.199 25.882,40.199 25.883,40.199 C26.763,40.798 27.388,41.701 27.642,42.741 C27.642,42.741 27.642,42.742 27.643,42.742 C27.643,42.743 27.643,42.743 27.643,42.744 C28.412,45.912 29.912,48.905 31.979,51.400 C31.985,51.406 31.989,51.414 31.994,51.420 C32.000,51.427 32.006,51.433 32.011,51.440 L35.662,56.072 C35.663,56.072 35.663,56.073 35.663,56.074 C35.664,56.074 35.664,56.074 35.664,56.075 C36.954,57.716 38.900,58.657 41.005,58.657 L47.995,58.657 C50.100,58.657 52.046,57.716 53.335,56.075 C53.336,56.074 53.336,56.074 53.337,56.074 C53.337,56.073 53.337,56.072 53.338,56.072 L56.989,51.440 C56.994,51.433 57.000,51.427 57.006,51.420 C57.011,51.414 57.015,51.406 57.021,51.400 C59.135,48.849 60.652,45.853 61.409,42.738 C61.409,42.738 61.409,42.737 61.409,42.736 L61.409,42.736 C61.662,41.700 62.287,40.800 63.169,40.200 C63.169,40.200 63.169,40.200 63.169,40.200 C64.335,39.406 65.115,38.121 65.310,36.673 C65.415,35.899 65.335,35.118 65.091,34.391 ZM60.254,29.230 C60.215,29.230 60.177,29.228 60.138,29.225 C51.933,28.617 44.569,28.444 37.625,28.698 C34.553,28.811 31.548,29.018 28.758,29.225 C27.913,29.288 27.175,28.655 27.112,27.811 C27.049,26.966 27.684,26.231 28.530,26.169 C31.214,25.969 34.381,25.750 37.512,25.635 C44.571,25.377 52.047,25.551 60.366,26.169 C61.212,26.231 61.847,26.966 61.784,27.811 C61.724,28.616 61.050,29.230 60.254,29.230 Z" class="cls-1"/>
</svg>


