<svg xmlns="http://www.w3.org/2000/svg" xmlns:xlink="http://www.w3.org/1999/xlink" preserveAspectRatio="xMidYMid" width="77" height="100" viewBox="0 0 77 100">
  <defs>
    <style>
      .cls-1 {
        fill: #000;
        fill-rule: evenodd;
      }
    </style>
  </defs>
  <path d="M74.299,96.923 C73.614,98.048 72.838,99.323 72.838,100.000 L68.676,100.000 C68.676,98.153 69.681,96.502 70.745,94.755 C71.774,93.065 72.838,91.319 72.838,89.583 L72.838,68.750 C72.838,67.599 71.578,66.666 70.757,66.666 L68.676,66.666 L68.676,72.916 L64.513,72.916 L64.513,66.666 L64.513,64.583 C64.513,63.433 63.254,62.499 62.432,62.499 L60.351,62.499 L60.351,70.833 L56.189,70.833 L56.189,61.209 C55.659,60.796 54.722,60.416 54.108,60.416 L52.027,60.416 L52.027,70.833 L47.865,70.833 L47.865,45.833 C47.870,45.272 47.658,44.761 47.268,44.373 C46.869,43.976 46.335,43.754 45.765,43.750 C44.610,43.748 43.710,44.633 43.700,45.785 L43.703,77.593 C43.703,78.726 43.018,79.717 41.959,80.118 C40.897,80.520 39.724,80.230 38.973,79.377 L38.879,79.272 C37.505,77.711 34.286,74.059 32.109,72.543 C31.217,71.922 29.888,71.851 28.799,72.365 C28.115,72.688 27.902,73.291 27.835,73.622 C27.708,74.259 27.893,74.929 28.331,75.415 C31.022,78.403 32.851,81.785 34.621,85.056 C36.513,88.554 38.301,91.858 40.950,94.300 L41.012,94.359 C43.521,96.872 43.710,98.220 43.703,99.850 L43.703,100.000 L39.540,100.000 L39.541,99.832 C39.544,99.118 39.545,98.789 38.098,97.335 C34.957,94.427 32.926,90.672 30.961,87.039 C29.308,83.984 27.598,80.824 25.240,78.206 C23.924,76.745 23.369,74.725 23.755,72.802 C24.130,70.934 25.321,69.401 27.024,68.596 C29.451,67.450 32.380,67.656 34.486,69.122 C36.083,70.235 37.960,72.097 39.540,73.787 L39.538,45.765 C39.569,42.336 42.348,39.582 45.745,39.582 C45.764,39.582 45.783,39.582 45.803,39.583 C47.465,39.598 49.027,40.249 50.201,41.416 C51.394,42.602 52.042,44.177 52.027,45.852 L52.027,56.249 L54.108,56.249 C55.707,56.249 57.836,57.012 59.223,58.333 L62.432,58.333 C64.789,58.333 67.360,59.967 68.303,62.499 L70.757,62.499 C73.710,62.499 77.000,65.067 77.000,68.750 L77.000,89.583 C77.000,92.490 75.503,94.948 74.299,96.923 ZM27.054,47.916 C26.521,47.916 25.989,47.713 25.582,47.306 L13.096,34.806 C12.283,33.992 12.283,32.673 13.096,31.860 L19.339,25.610 C20.152,24.796 21.469,24.796 22.282,25.610 L27.054,30.386 L40.150,17.276 C40.963,16.463 42.280,16.463 43.093,17.276 L49.336,23.526 C50.149,24.340 50.149,25.659 49.336,26.473 L28.525,47.306 C28.119,47.713 27.586,47.916 27.054,47.916 ZM41.621,21.696 L28.525,34.806 C27.713,35.620 26.395,35.620 25.582,34.806 L20.811,30.029 L17.510,33.333 L27.054,42.887 L44.922,24.999 L41.621,21.696 ZM55.411,47.637 C54.416,47.061 54.076,45.786 54.652,44.790 C57.019,40.694 58.270,36.012 58.270,31.249 C58.270,16.315 46.134,4.166 31.216,4.166 C16.298,4.166 4.162,16.315 4.162,31.249 C4.162,46.183 16.298,58.333 31.216,58.333 C32.513,58.333 33.816,58.240 35.090,58.057 C36.229,57.894 37.282,58.685 37.445,59.824 C37.608,60.963 36.818,62.018 35.680,62.182 C34.212,62.393 32.710,62.499 31.216,62.499 C14.003,62.499 -0.000,48.480 -0.000,31.249 C-0.000,14.018 14.003,-0.000 31.216,-0.000 C48.429,-0.000 62.432,14.018 62.432,31.249 C62.432,36.743 60.988,42.147 58.254,46.877 C57.679,47.872 56.406,48.213 55.411,47.637 Z" class="cls-1"/>
</svg>


